<svg version="1.1" xmlns="http://www.w3.org/2000/svg" xmlns:xlink="http://www.w3.org/1999/xlink" width="34" height="34" viewBox="0 0 34 34">
<g>
</g>
  <path d="M19.125 18.245l3.628 3.628-3.005 3.005-4.872-4.872v-7.255h4.25zM27.625 2.125c3.521 0 6.375 2.854 6.375 6.375 0 2.158-1.072 4.065-2.712 5.218-1.547-4.085-4.795-7.334-8.881-8.881 1.153-1.64 3.061-2.712 5.218-2.712zM11.593 4.837c-4.085 1.547-7.334 4.795-8.881 8.881-1.64-1.153-2.712-3.060-2.712-5.218 0-3.521 2.854-6.375 6.375-6.375 2.158 0 4.065 1.072 5.218 2.712zM17 6.375c-7.042 0-12.75 5.708-12.75 12.75 0 3.077 1.090 5.899 2.905 8.102l-0.78 6.773h2.125l2.125-3.831c1.875 1.085 4.053 1.706 6.375 1.706 2.322 0 4.5-0.621 6.375-1.706l-0 0 2.125 3.831h2.125l-0.78-6.772c1.815-2.203 2.905-5.025 2.905-8.103 0-7.042-5.708-12.75-12.75-12.75zM17 27.625c-4.694 0-8.5-3.806-8.5-8.5s3.806-8.5 8.5-8.5 8.5 3.806 8.5 8.5-3.806 8.5-8.5 8.5z" fill="#ffffff" />
</svg>